# xmcd CD database file
#
# Track frame offsets:
#	150
#	14932
#	29504
#	44973
#	60720
#	75122
#	89445
#	100219
#	113476
#	127720
#	141134
#	154387
#	168086
#	182670
#	195284
#	208861
#	223347
#	237458
#	248306
#	262267
#	275114
#	288002
#
# Disc length: 4001 seconds
#
# Revision: 0
# Processed by: cddbd v1.5.2PL0 Copyright (c) Steve Scherf et al.
# Submitted via: CDex 1.70beta2
#
DISCID=410f9f16
DTITLE=Jelly Roll Morton - Giants of Jazz Disc 2
DYEAR=1900
DGENRE=Jazz
TTITLE0=Boogaboo: Jelly Roll Morton’s Red Hot Peppers 
TTITLE1=Shreveport Stomp: Jelly Roll Morton Trio
TTITLE2=Mournful Serenade: Jelly Roll Morton’s Quartet
TTITLE3=Deep Creek: Jelly Roll Morton and His Orchestra
TTITLE4=Seattle Hunch: Jelly Roll Morton 
TTITLE5=Tank Town Bump: Jelly Roll Morton and His Orchestra
TTITLE6=Jersey Joe: Jelly Roll Morton and His Red Hot Peppers
TTITLE7=Smilin’ the Blues Away: Jelly Roll Morton Trio
TTITLE8=Turtle Twist: Jelly Roll Morton Trio 
TTITLE9=Load of Coal: Jelly Roll Morton and His Red Hot Peppers 
TTITLE10=Strokin’ Away: Jelly Roll Morton and His Red Hot Peppers 
TTITLE11=Blue Blood Blues: Jelly Roll Morton and His Red Hot Peppers 
TTITLE12=Fickle Fay Creep (Soap Suds): Jelly Roll Morton and His Red Hot Peppers 
TTITLE13=The Finger Breaker: Jelly Roll Morton
TTITLE14=Oh! Didn’t He Ramble: Jelly Roll Morton’s New Orleans Jazzmen 
TTITLE15=I Thought I Heard Buddy Bolden Say: Jelly Roll Morton’s New Orleans Jazzmen
TTITLE16=Winin’ Boy Blues: Jelly Roll Morton’s New Orleans Jazzmen 
TTITLE17=Climax Rag: Jelly Roll Morton’s New Orleans Jazzmen 
TTITLE18=The Crave: Jelly Roll Morton 
TTITLE19=King Porter Stomp: Jelly Roll Morton 
TTITLE20=The Naked Dance: Jelly Roll Morton 
TTITLE21=Mamie's Blues: Jelly Roll Morton 
EXTD=
EXTT0=
EXTT1=
EXTT2=
EXTT3=
EXTT4=
EXTT5=
EXTT6=
EXTT7=
EXTT8=
EXTT9=
EXTT10=
EXTT11=
EXTT12=
EXTT13=
EXTT14=
EXTT15=
EXTT16=
EXTT17=
EXTT18=
EXTT19=
EXTT20=
EXTT21=
PLAYORDER=
